<svg width="125" height="125" viewBox="0 0 125 125" fill="none" xmlns="http://www.w3.org/2000/svg">
<path d="M123.38 62.6896L105.76 80.3091V93.0344V105.76H94.0137H80.3096L62.69 123.379L45.0705 105.76H30.3875H19.62V93.0344V80.3091L2 62.6896L10.8098 53.8798L19.62 45.07V33.3237V19.6196H31.3664H45.0705L53.8798 10.8098L62.6896 2L71.4994 10.8098L80.3096 19.6196H94.0137H105.76V35.2814V45.07L114.57 53.8798L123.38 62.6896Z" fill="white" stroke="#0D0404" stroke-width="2"/>
<path d="M112.802 55.6476L119.844 62.6896L103.992 78.5414L103.26 79.2736V80.3091V93.0344V103.26H94.0137H80.3096H79.2741L78.5418 103.992L62.69 119.844L46.8383 103.992L46.106 103.26H45.0705H30.3875H22.12V93.0344V80.3091V79.2736L21.3878 78.5413L5.53556 62.6896L12.5775 55.6476L12.5775 55.6476L21.3877 46.8378L22.12 46.1056V45.07V33.3237V22.1196H31.3664H45.0705H46.1061L46.8383 21.3873L55.6476 12.5775L55.6476 12.5775L62.6896 5.53554L69.7316 12.5775L69.7316 12.5776L78.5419 21.3874L79.2741 22.1196H80.3096H94.0137H103.26V35.2814V45.07V46.1056L103.992 46.8378L112.802 55.6476Z" fill="white" stroke="#096E9F" stroke-width="5"/>
<path d="M100.897 78.3196L116.527 62.6894L108.712 54.8743L100.897 47.0592V38.3757V24.4822H90.4768H78.32L70.5045 16.6671L62.6894 8.85205L54.8743 16.6671L47.0596 24.4822H34.9028H24.4827V36.6391V47.0592L16.6671 54.8743L8.85205 62.6894L24.4827 78.3196V89.608V100.896H34.0344H47.0596L62.6898 116.527L78.32 100.896H90.4768H100.897V89.608V78.3196Z" stroke="black"/>
<path d="M100.5 78.0001L100.5 70.5001L31.7079 41.5469L25 47.5001L25.5 54.5001L93.5157 83.9928L100.5 78.0001Z" fill="#A6D3D6" stroke="black"/>
<path d="M78.0002 100L84.3007 94.0405L55.0002 24.8954L47.0002 24.8954L42.1078 31.9745L71.0002 100L78.0002 100Z" fill="#C0C863" stroke="black"/>
<path d="M78.0001 25L71.5001 25L43.0001 93.5L47.7318 100.306L56.5001 100.306L84.3853 31.112L78.0001 25Z" fill="#A6D3D6" stroke="black"/>
<path d="M100.365 47.5L94.5875 41.0919L25.5 70.5L25 78L32.7371 83.6003L100.365 54.5351L100.365 47.5Z" fill="#C0C863" stroke="black"/>
<path d="M63.8733 43.8404L67.6937 52.5727L67.8941 53.0308L68.3522 52.8304L76.7973 49.1357L72.5597 57.6108L72.3361 58.058L72.7833 58.2816L81.5388 62.6594L72.8065 66.4797L72.3458 66.6813L72.55 67.1409L76.8818 76.8873L68.3522 73.1556L67.8941 72.9552L67.6937 73.4133L63.8869 82.1145L59.5007 72.7939L59.2936 72.3537L58.8479 72.5487L50.1204 76.367L52.8522 67.0789L52.9735 66.6665L52.5839 66.4847L44.3875 62.6597L52.6078 58.2756L53.016 58.0578L52.8306 57.634L49.0647 49.0263L58.8671 52.8383L59.2918 53.0035L59.4955 52.5959L63.8733 43.8404Z" fill="white" stroke="black"/>
<path d="M45.0894 62.6186L53.5859 57.8345C53.5859 57.8345 59.6067 54.8 62.6893 54.8C65.772 54.8 72.3997 57.8345 72.3997 57.8345L81.5031 62.6186L72.3997 66.3311C72.3997 66.3311 64.7444 69.3655 62.6893 69.3655C60.6342 69.3655 53.5859 66.3311 53.5859 66.3311L45.0894 62.6186Z" fill="white" stroke="black"/>
<circle cx="63.2965" cy="62.0826" r="6.67585" fill="#096E9F"/>
<circle cx="63.2963" cy="62.0828" r="4.76847" fill="black"/>
<ellipse cx="65.2038" cy="59.2217" rx="2.86108" ry="1.90739" fill="white"/>
</svg>
